<?xml version="1.0" standalone="no"?>
<!DOCTYPE svg PUBLIC "-//W3C//DTD SVG 20010904//EN"
 "http://www.w3.org/TR/2001/REC-SVG-20010904/DTD/svg10.dtd">
<svg version="1.0" xmlns="http://www.w3.org/2000/svg"
 width="467.000000pt" height="467.000000pt" viewBox="0 0 467.000000 467.000000"
 preserveAspectRatio="xMidYMid meet">
<metadata>
Created by potrace 1.14, written by Peter Selinger 2001-2017
</metadata>
<g transform="translate(0.000000,467.000000) scale(0.100000,-0.100000)"
fill="#000000" stroke="none">
<path d="M343 4435 c-17 -7 -40 -26 -50 -41 -17 -27 -18 -112 -21 -2034 -2
-1394 0 -2016 8 -2042 6 -20 24 -48 41 -62 l31 -26 1980 0 c1848 0 1982 1
2009 17 64 38 59 -115 57 2058 l-3 1977 -37 34 -38 34 -1000 0 c-1099 0 -1042
3 -1075 -60 -13 -25 -15 -113 -15 -635 0 -333 -2 -605 -5 -605 -2 0 -397 307
-877 682 -480 375 -888 690 -907 700 -42 21 -56 22 -98 3z m1635 -2191 c9 -3
12 -20 10 -56 l-3 -53 -212 -7 c-117 -3 -309 -3 -425 0 l-213 7 0 55 0 55 165
6 c168 5 654 1 678 -7z m637 -54 l0 -55 -225 0 -225 0 -3 44 c-6 75 -18 72
230 69 l223 -3 0 -55z m910 0 l0 -55 -375 0 -375 0 -3 44 c-6 77 -34 72 380
69 l373 -3 0 -55z m-1152 -570 c5 -4 7 -29 5 -56 l-3 -49 -225 -7 c-124 -4
-326 -4 -450 0 l-225 7 0 55 0 55 165 6 c203 7 722 -1 733 -11z m672 -40 l0
-55 -225 0 -225 0 -3 44 c-6 75 -18 72 230 69 l223 -3 0 -55z m-215 -549 l185
-6 0 -55 0 -55 -312 -9 c-178 -5 -448 -5 -625 0 l-313 9 0 55 0 55 165 5 c236
8 684 8 900 1z m805 -51 l0 -55 -225 0 -225 0 -3 44 c-6 75 -18 72 230 69
l223 -3 0 -55z m-2060 -10 l0 -55 -225 0 -225 0 -3 44 c-6 75 -18 72 230 69
l223 -3 0 -55z"/>
</g>
</svg>
